<?xml version="1.0" encoding="iso-8859-1"?>
<!-- Generator: Adobe Illustrator 18.1.1, SVG Export Plug-In . SVG Version: 6.00 Build 0)  -->
<svg xmlns="http://www.w3.org/2000/svg" xmlns:xlink="http://www.w3.org/1999/xlink" version="1.1" id="Capa_1" x="0px" y="0px" viewBox="0 0 26.571 26.571" style="enable-background:new 0 0 26.571 26.571;" xml:space="preserve" width="512px" height="512px">
<g>
	<path d="M15.326,22.775c-0.049,0.061-1.182,1.446-2.776,0.273l-0.039-0.44   c-0.007-0.078-0.076-0.135-0.153-0.128c-0.075,0.007-0.134,0.074-0.128,0.151l0.033,0.365l-0.316,0.027   c-0.079,0.005-0.135,0.075-0.129,0.151c0.007,0.077,0.076,0.135,0.153,0.127l0.406-0.034c0.594,0.439,1.14,0.561,1.603,0.521   c0.949-0.082,1.558-0.827,1.567-0.84c0.047-0.06,0.038-0.146-0.023-0.197C15.463,22.704,15.375,22.714,15.326,22.775z M13.286,0   C6.896,0,1.717,5.18,1.717,11.568c0,3.856,1.886,7.271,4.787,9.374c0-0.001,0-0.003,0-0.006c1.11,3.292,3.913,5.635,7.192,5.635   c3.566,0,6.573-2.77,7.447-6.517c0.001,0.001,0.001,0.002,0.001,0.005c2.283-2.114,3.71-5.135,3.71-8.491   C24.855,5.18,19.675,0,13.286,0z M13.696,25.382c-3.633,0-6.585-3.314-6.652-7.434c0.018-0.048,0.037-0.094,0.057-0.141h2.237   l1.809,0.02c0,0,5.972,1.242,9.206-0.02C20.353,21.991,17.373,25.382,13.696,25.382z M14.888,19.63   c-1.2-0.49-1.98-0.217-2.373,0.03c-0.149-0.566-0.661-0.986-1.274-0.986c-0.731,0-1.323,0.593-1.323,1.323   c0,0.731,0.592,1.324,1.323,1.324c0.73,0,1.323-0.593,1.323-1.324c0-0.013-0.004-0.022-0.004-0.034   c0.287-0.216,1.022-0.588,2.279-0.057c-0.002,0.03-0.009,0.06-0.009,0.091c0,0.731,0.592,1.324,1.322,1.324   c0.731,0,1.323-0.593,1.323-1.324c0-0.73-0.592-1.323-1.323-1.323C15.55,18.674,15.048,19.079,14.888,19.63z" fill="#FFFFFF"/>
</g>
<g>
</g>
<g>
</g>
<g>
</g>
<g>
</g>
<g>
</g>
<g>
</g>
<g>
</g>
<g>
</g>
<g>
</g>
<g>
</g>
<g>
</g>
<g>
</g>
<g>
</g>
<g>
</g>
<g>
</g>
</svg>
